# xmcd
#
# Track frame offsets: 
#        210
#        9799
#        21028
#        33601
#        45314
#        58589
#        84493
#        104741
#        122119
#        134829
#        151628
#        165542
#        181278
#
# Disc length: 2615 seconds
#
# Revision: 0
# Processed by: cddbd v1.5.2PL0 Copyright (c) Steve Scherf et al.
# Submitted via: ExactAudioCopy v0.99pb5
#
DISCID=9e0a350d
DTITLE=Grass Soup - Have a Bowl
DYEAR=1998
DGENRE=Bluegrass
TTITLE0=Mysterious Breakdown
TTITLE1=Stay in Bed
TTITLE2=Mushrooms for Breakfast
TTITLE3=Salt Creek
TTITLE4=Holy Sacred
TTITLE5=Monkphoria
TTITLE6=Clown
TTITLE7=Blackberry Blossom
TTITLE8=No Trespassing
TTITLE9=The Pleasure Is Mine
TTITLE10=Go Away
TTITLE11=Jumping on the Bed
TTITLE12=Picasso Woman
EXTD=
EXTT0=
EXTT1=
EXTT2=
EXTT3=
EXTT4=
EXTT5=
EXTT6=
EXTT7=
EXTT8=
EXTT9=
EXTT10=
EXTT11=
EXTT12=
PLAYORDER=
